<svg xmlns="http://www.w3.org/2000/svg" width="689.04" height="81.75" viewBox="0 0 689.04 81.75"><path fill="#fff" d="M123.45 47.19c0 4.92-2.37 10.41-11.05 10.41-2.59 0-6.14-.62-8.63-1.19-.22-4.41-.45-7.75-.45-11.36v-5.32c1.8-.34 4.11-.45 7.5-.45 5.02 0 12.63.56 12.63 7.91m-29.11 13.08c2.2-.15 4.35-.21 6.55-.21 1.07 0 2.82.06 4.9.17 2.03.1 4.4.21 6.6.21 12.3 0 16.59-8.05 16.59-13.25 0-7.12-6.1-9.78-13.32-9.78v-.11c3.17-.22 9.21-2.31 9.21-8.87 0-4.86-4.18-8.61-11.06-8.61-2.32 0-4.91.12-7.23.17-2.31.09-4.4.2-5.7.2-2.21 0-4.35-.05-6.55-.17v1.51l3.56.62c.4 2.66.56 6.1.56 13.06v9.82c0 6.94-.17 10.39-.56 13.04l-3.56.66v1.54zm25.01-31.33c0 6.84-7.11 7.86-11.51 7.86-1.24 0-2.6 0-4.52-.23v-2.21c0-3.62.23-6.95.45-11.36 2.2-.17 4.57-.34 7.11-.34 6.77.01 8.47 2.72 8.47 6.28"/><path fill="#fff" d="M136.56 38.97c1.02-3.65 3.22-8.37 9.32-8.37 5.54 0 7.06 3.32 7.06 8.04l-16.38.33zm20.57 12.48c-2.43 3.01-5.14 5.85-10.45 5.85-5.54 0-10.91-3.98-10.91-12.56 0-1.48.11-2.39.28-3.29 3.56-.17 7.18-.17 10.74-.17 3.67 0 7.34.05 11.02.17.39-6.25-1.75-13.33-11.19-13.33-8.76 0-15.71 7.31-15.71 17.76 0 7.1 3.56 15.05 14.12 15.05 7.74 0 11.13-4.37 13.67-8.34l-1.57-1.14zM161.19 58.73l3.39-.62c.22-3.23.34-7.98.34-11.38v-5.66c0-4.98-.12-7.53-.34-9.34l-3.84-.57v-1.52c2.88-.23 6.08-1.07 7.71-1.53h1.18c-.17 2.07-.34 4.19-.34 6.28l.11.11c1.53-2.15 5.55-6.4 10.7-6.4 8.01 0 9.52 5.77 9.52 10.02v10.76c0 3.11.12 6.17.46 9.22l3.39.62v1.53c-1.58-.11-3.22-.19-4.79-.19-1.29 0-2.58.08-3.87.19.17-5.09.34-10.92.34-16.01v-2.44c0-5.26-.9-10.07-7.02-10.07-6.74 0-8.72 6.17-8.72 12.51v3.28c0 4.07.23 7.92.34 10.58l3.4.62v1.53c-1.98-.11-4.01-.19-5.98-.19-1.96 0-3.99.08-5.97.19v-1.52zM201.5 38.97c1.02-3.65 3.22-8.37 9.32-8.37 5.54 0 7.06 3.32 7.06 8.04l-16.38.33zm20.56 12.48c-2.43 3.01-5.14 5.85-10.45 5.85-5.54 0-10.91-3.98-10.91-12.56 0-1.48.12-2.39.28-3.29 3.56-.17 7.18-.17 10.74-.17 3.67 0 7.34.05 11.02.17.39-6.25-1.75-13.33-11.19-13.33-8.75 0-15.7 7.31-15.7 17.76 0 7.1 3.56 15.05 14.12 15.05 7.74 0 11.13-4.37 13.67-8.34l-1.58-1.14zM231.09 43.85c0-4.3 1.87-12.89 10.66-12.89 2.89 0 4.99.62 6.8 1.64v12.6c0 4.24-.57 6.22-1.25 7.91-1.02 2.49-3.74 4.18-6.52 4.18-7.03.01-9.69-7.67-9.69-13.44m13.26-25.65l3.85.63c.23 3.34.34 6.75.34 10.15-1.42-.62-3.06-.85-5.04-.85-10.37 0-17.28 7.53-17.28 17.65 0 7.8 4.41 15.15 12.8 15.15 4.25 0 7.71-2.51 9.41-5.43h.12v4.76c1.18-.11 2.41-.19 3.58-.19 1.52 0 3.04.08 4.57.19v-1.52l-3.33-.62c-.11-4.4-.34-8.86-.34-15.52v-12.71l.23-14.74h-1.18c-1.63.45-4.83 1.3-7.72 1.52v1.53zM258.79 58.73l3.39-.62c.23-3.22.34-7.97.34-11.36v-5.65c0-4.97-.11-7.52-.34-9.32l-3.84-.62v-1.52c2.88-.23 6.09-1.08 7.71-1.53h1.18c-.06 2.71-.23 5.48-.23 13v5.65c0 4.86.23 8.7.34 11.36l3.39.62v1.52c-1.98-.11-4-.19-5.97-.19-1.96 0-3.99.08-5.97.19v-1.53zm6.02-42.83c1.74 0 3.14 1.41 3.14 3.15s-1.4 3.14-3.14 3.14c-1.75 0-3.15-1.4-3.15-3.14 0-1.74 1.4-3.15 3.15-3.15"/><path fill="#fff" d="M299.95 54.25c-1.52 1.87-5.53 6.68-12.49 6.68-9.61 0-14.07-7.52-14.07-14.87 0-10.23 7.63-17.93 17.12-17.93 2.77 0 6.16.74 8.02 1.53-.62 1.7-1.58 4.7-1.98 6.73l-1.52-.28v-3.05c-1.53-1.3-4.52-2.09-6.79-2.09-5.2 0-10.01 4.07-10.01 13.23 0 9.95 5.88 13.11 11.2 13.11 4.69 0 7.06-2.31 9.1-4.29l1.42 1.23zM318.43 56.17c-1.58 2.3-3.67 4.76-7.57 4.76-2.42 0-6.4-1.73-6.4-7.19 0-3.67.17-7.07.17-9.9v-12.38c-1.19 0-2.43.17-3.61.22v-1.75l3.61-.96c-.06-2.6-.23-4.98-.34-7.42 1.4-.17 3.59-.85 4.99-1.36-.06 2.95-.17 5.78-.17 8.78h5.87c.62 0 1.19-.05 1.81-.17l-1.13 2.82c-.56-.11-1.52-.17-3.56-.17h-2.99v17.25c0 7.35 1.47 8.6 3.96 8.6 1.64 0 3.1-1.19 4.29-2.21l1.07 1.08zM319.61 58.73l3.39-.62c.23-3.22.34-7.97.34-11.36v-5.65c0-4.97-.11-7.52-.34-9.32l-3.84-.62v-1.52c2.88-.23 6.09-1.08 7.71-1.53h1.18c-.06 2.71-.22 5.48-.22 13v5.65c0 4.86.22 8.7.33 11.36l3.39.62v1.52c-1.97-.11-4-.19-5.97-.19-1.96 0-3.99.08-5.97.19v-1.53zm6.01-42.83c1.74 0 3.15 1.41 3.15 3.15s-1.41 3.14-3.15 3.14c-1.75 0-3.15-1.4-3.15-3.14 0-1.74 1.41-3.15 3.15-3.15"/><path fill="#fff" d="M334.1 58.73l3.39-.62c.22-3.23.34-7.98.34-11.38v-5.66c0-4.98-.12-7.53-.34-9.34l-3.84-.57v-1.52c2.88-.23 6.08-1.07 7.71-1.53h1.18c-.17 2.07-.34 4.19-.34 6.28l.12.11c1.53-2.15 5.54-6.4 10.7-6.4 8.01 0 9.52 5.77 9.52 10.02v10.76c0 3.11.12 6.17.45 9.22l3.39.62v1.53c-1.58-.11-3.22-.19-4.79-.19-1.29 0-2.58.08-3.87.19.18-5.09.34-10.92.34-16.01v-2.44c0-5.26-.9-10.07-7.02-10.07-6.74 0-8.72 6.17-8.72 12.51v3.28c0 4.07.22 7.92.34 10.58l3.4.62v1.53c-1.98-.11-4.01-.19-5.98-.19-1.96 0-3.99.08-5.97.19v-1.52zM374.41 38.97c1.02-3.65 3.23-8.37 9.33-8.37 5.54 0 7.06 3.32 7.06 8.04l-16.39.33zm20.57 12.48c-2.43 3.01-5.14 5.85-10.45 5.85-5.53 0-10.9-3.98-10.9-12.56 0-1.48.11-2.39.28-3.29 3.56-.17 7.18-.17 10.74-.17 3.67 0 7.34.05 11.01.17.4-6.25-1.75-13.33-11.18-13.33-8.76 0-15.71 7.31-15.71 17.76 0 7.1 3.56 15.05 14.13 15.05 7.74 0 11.13-4.37 13.67-8.34l-1.59-1.14zM413.9 20.01c2.2.12 4.35.19 6.55.19s4.34-.07 6.54-.19v1.53l-3.67.62c-.17 3.51-.45 9.17-.45 14.14v6.28c0 9.73 2.09 14.82 10.15 14.82 8.18 0 11.12-5.32 11.12-12.45v-7.07c0-4.8-.17-12.39-.46-15.72l-4.23-.62v-1.53c2.03.12 4.06.19 6.09.19 2.08 0 4.23-.07 6.43-.19v1.53l-3.73.62c-.22 2.66-.39 9.62-.39 15.72v5.38c0 10.97-2.93 17.77-16.02 17.77-9.03 0-13.83-5.49-13.83-12.9v-10.65c0-5.77-.17-12.67-.39-15.33l-3.73-.62v-1.52zM454.55 58.73l3.39-.62c.22-3.23.34-7.98.34-11.38v-5.66c0-4.98-.11-7.53-.34-9.34l-3.84-.57v-1.52c2.88-.23 6.08-1.07 7.71-1.53h1.18c-.17 2.07-.34 4.19-.34 6.28l.11.11c1.53-2.15 5.55-6.4 10.7-6.4 8.01 0 9.52 5.77 9.52 10.02v10.76c0 3.11.11 6.17.45 9.22l3.39.62v1.53c-1.58-.11-3.22-.19-4.79-.19-1.29 0-2.57.08-3.87.19.17-5.09.34-10.92.34-16.01v-2.44c0-5.26-.91-10.07-7.02-10.07-6.74 0-8.72 6.17-8.72 12.51v3.28c0 4.07.23 7.92.34 10.58l3.4.62v1.53c-1.98-.11-4.02-.19-5.98-.19-1.96 0-3.99.08-5.97.19v-1.52zM489.3 58.73l3.39-.62c.22-3.22.34-7.97.34-11.36v-5.65c0-4.97-.11-7.52-.34-9.32l-3.85-.62v-1.52c2.89-.23 6.09-1.08 7.71-1.53h1.18c-.06 2.71-.23 5.48-.23 13v5.65c0 4.86.23 8.7.34 11.36l3.39.62v1.52c-1.97-.11-4-.19-5.97-.19-1.96 0-3.99.08-5.97.19v-1.53zm6.01-42.83c1.74 0 3.15 1.41 3.15 3.15s-1.4 3.14-3.15 3.14c-1.74 0-3.14-1.4-3.14-3.14 0-1.74 1.4-3.15 3.14-3.15"/><path fill="#fff" d="M533.26 30.31l-2.43.63c-3.62 8.46-7.41 19.7-10.68 29.81h-4.51c-3.44-10.27-6.87-20.49-10.53-29.81l-2.76-.63v-1.52c2.08.11 4.16.19 6.25.19 1.69 0 3.32-.08 5.01-.19v1.52l-2.98.63c2.2 8.13 5.07 16.82 8.05 26.08h.11c2.93-8.75 5.52-17.62 7.73-26.08l-2.88-.63v-1.52c1.81.11 3.62.19 5.43.19 1.41 0 2.77-.08 4.19-.19v1.52zM539.93 38.97c1.02-3.65 3.22-8.37 9.32-8.37 5.54 0 7.06 3.32 7.06 8.04l-16.38.33zm20.56 12.48c-2.43 3.01-5.14 5.85-10.45 5.85-5.54 0-10.9-3.98-10.9-12.56 0-1.48.11-2.39.28-3.29 3.56-.17 7.18-.17 10.74-.17 3.67 0 7.34.05 11.02.17.39-6.25-1.75-13.33-11.19-13.33-8.76 0-15.71 7.31-15.71 17.76 0 7.1 3.56 15.05 14.13 15.05 7.74 0 11.13-4.37 13.67-8.34l-1.59-1.14zM564.55 58.73l3.39-.62c.22-3.22.34-7.97.34-11.36v-5.65c0-4.97-.12-7.52-.34-9.32l-3.84-.62v-1.52c2.87-.23 6.08-1.07 7.71-1.53h1.18l-.84 9.15.11.11c1.46-3.39 4.8-9.26 9.54-9.26 1.64 0 2.54.34 3.5.75-.96 2.09-2.21 4.86-3 6.98l-1.14-.46v-2.88c-.4-.28-.79-.39-1.3-.38-1.31 0-4.08 1.41-5.79 5.79-1.35 3.5-1.3 6.38-1.3 8.86 0 4.85.23 8.69.34 11.34l4.41.62v1.53c-2.99-.11-5.02-.19-6.98-.19-1.97 0-3.99.08-5.97.19v-1.53zM590.07 51.65l-1.24 3.32c1.47 1.3 4.9 3.1 8.85 3.1 3.27 0 7.78-1.92 7.78-5.69 0-3.44-1.35-4.4-9.57-6.93-5.48-1.69-9.6-3.33-9.6-8.4 0-4.85 4.18-8.93 12.66-8.93 3.9 0 6.63.74 9.16 1.53-.79 1.93-1.63 3.96-2.37 6.21l-1.2-.34.11-2.76c-1.75-.96-4.29-1.81-7.41-1.81-3.22 0-6.77 1.3-6.77 4.63 0 7.72 19.17 4.05 19.17 15.04 0 6.03-6.09 10.29-13.2 10.29-3.04 0-8.06-.91-11.96-3.92 1.58-1.97 3.1-4.06 4.29-6.02l1.3.68zM611.9 58.73l3.39-.62c.23-3.22.34-7.97.34-11.36v-5.65c0-4.97-.12-7.52-.34-9.32l-3.84-.62v-1.52c2.88-.23 6.09-1.08 7.71-1.53h1.18c-.06 2.71-.22 5.48-.22 13v5.65c0 4.86.22 8.7.34 11.36l3.39.62v1.52c-1.98-.11-4-.19-5.97-.19-1.96 0-3.99.08-5.97.19v-1.53zm6.01-42.83c1.74 0 3.15 1.41 3.15 3.15s-1.41 3.14-3.15 3.14-3.15-1.4-3.15-3.14c0-1.74 1.41-3.15 3.15-3.15"/><path fill="#fff" d="M643.25 56.17c-1.58 2.3-3.67 4.76-7.57 4.76-2.42 0-6.4-1.73-6.4-7.19 0-3.67.17-7.07.17-9.9v-12.38c-1.19 0-2.43.17-3.61.22v-1.75l3.61-.96c-.06-2.6-.23-4.98-.34-7.42 1.4-.17 3.59-.85 4.99-1.36-.06 2.95-.17 5.78-.17 8.78h5.87c.62 0 1.19-.05 1.81-.17l-1.13 2.82c-.56-.11-1.53-.17-3.56-.17h-2.99v17.25c0 7.35 1.47 8.6 3.96 8.6 1.64 0 3.1-1.19 4.29-2.21l1.07 1.08zM673.04 30.31l-1.69.63c-4.21 8.81-7.2 18.02-10.4 27.24-2.59 7.42-6.19 17.73-16.26 17.73-1.58 0-2.65-.46-3.79-.85.68-1.97 1.35-4.44 1.81-6.7l1.52.17v2.58c.79.34 1.52.62 2.64.62 6.19 0 9.34-7.64 10.57-11.46h-1.41c-3.73-9.77-7.41-21.31-11.19-29.32l-2.6-.63v-1.52c1.98.11 3.96.19 5.94.19 1.75 0 3.45-.08 5.2-.19v1.52l-2.94.63c2.49 8.47 5.59 17.34 8.35 26.05h.12c2.82-8.76 5.75-18.14 7.38-26.05l-2.7-.63v-1.52c1.52.11 3.09.19 4.61.19 1.63 0 3.2-.08 4.84-.19v1.51zM30.28 30.29v-7.72c-.05-2.7.13-6.76-1.94-8.58 2.55-.49 5.08-.83 7.63-1.23v23.22h-23.23c.39-2.56.74-5.08 1.23-7.63 1.82 2.06 5.88 1.89 8.67 1.94h7.64M30.29 51.55h-7.72c-2.7.05-6.76-.13-8.58 1.94-.49-2.55-.83-5.08-1.23-7.63h23.22v23.16c-2.55-.39-5.07-.74-7.63-1.23 2.06-1.82 1.89-5.88 1.94-8.67v-7.57M51.58 30.29v-7.72c.05-2.7-.13-6.76 1.93-8.58-2.55-.49-5.08-.83-7.63-1.23v23.22h23.22c-.39-2.56-.74-5.08-1.22-7.63-1.82 2.06-5.88 1.89-8.67 1.94h-7.63M51.57 51.55h7.72c2.71.05 6.77-.13 8.58 1.94.49-2.55.83-5.08 1.23-7.63h-23.22v23.16c2.55-.39 5.07-.74 7.63-1.23-2.06-1.82-1.89-5.88-1.93-8.67v-7.57M44.86 6.37c0 2.18-1.77 3.94-3.95 3.94s-3.94-1.76-3.94-3.94 1.76-3.94 3.94-3.94 3.95 1.76 3.95 3.94m-3.91-6.37c-3.52 0-6.37 2.85-6.37 6.37 0 3.51 2.85 6.36 6.37 6.36 3.51 0 6.35-2.85 6.35-6.36.01-3.52-2.84-6.37-6.35-6.37M44.86 75.38c0 2.18-1.77 3.94-3.95 3.94s-3.94-1.76-3.94-3.94c0-2.18 1.76-3.94 3.94-3.94s3.95 1.77 3.95 3.94m-3.91-6.36c-3.52 0-6.37 2.84-6.37 6.36 0 3.51 2.85 6.36 6.37 6.36 3.51 0 6.35-2.85 6.35-6.36.01-3.52-2.84-6.36-6.35-6.36M79.36 40.91c0 2.18-1.76 3.94-3.94 3.94-2.18 0-3.94-1.76-3.94-3.94s1.76-3.94 3.94-3.94c2.18 0 3.94 1.76 3.94 3.94m-3.9-6.37c-3.52 0-6.37 2.85-6.37 6.37 0 3.51 2.85 6.36 6.37 6.36 3.51 0 6.35-2.85 6.35-6.36 0-3.52-2.85-6.37-6.35-6.37M10.28 40.9c0 2.18-1.76 3.94-3.94 3.94-2.18 0-3.95-1.76-3.95-3.94s1.76-3.95 3.95-3.95c2.17 0 3.94 1.77 3.94 3.95m-3.91-6.37c-3.52 0-6.37 2.84-6.37 6.37 0 3.51 2.85 6.36 6.37 6.36 3.51 0 6.35-2.85 6.35-6.36 0-3.53-2.84-6.37-6.35-6.37M683.31 40.75c-1 0-1.93-.26-2.8-.77-.86-.51-1.55-1.2-2.05-2.08-.5-.88-.76-1.81-.76-2.81 0-1.03.25-1.97.76-2.84.51-.86 1.19-1.55 2.05-2.06.86-.51 1.8-.76 2.82-.76.78 0 1.52.14 2.22.43.7.29 1.31.69 1.83 1.2s.92 1.11 1.22 1.8c.29.69.44 1.43.44 2.23 0 .77-.15 1.5-.44 2.19s-.71 1.29-1.24 1.81-1.15.93-1.85 1.22c-.7.29-1.44.44-2.2.44m.11-1.08c.58 0 1.13-.12 1.65-.36s.98-.57 1.38-.99c.4-.42.71-.91.94-1.47.22-.56.34-1.15.34-1.76 0-.82-.2-1.58-.59-2.29-.39-.7-.93-1.26-1.6-1.66-.68-.41-1.41-.61-2.19-.61-.77 0-1.48.21-2.15.62-.66.41-1.19.97-1.58 1.67-.39.7-.59 1.46-.59 2.27 0 .83.2 1.6.59 2.3.4.7.94 1.26 1.61 1.68.67.39 1.4.6 2.19.6m2.9-2.01v.47h-.38c-.25 0-.44-.01-.57-.02-.14-.02-.27-.05-.4-.09-.13-.05-.24-.12-.35-.22-.14-.12-.32-.42-.53-.9-.21-.48-.41-.85-.58-1.09-.18-.25-.43-.37-.77-.37v1.76c0 .31.19.47.59.47v.47h-2.68v-.47c.22 0 .37-.03.45-.1.08-.06.12-.19.12-.37v-4.33c0-.18-.04-.3-.12-.36-.08-.07-.23-.1-.45-.1v-.47h2.84c.69 0 1.24.09 1.63.27.4.18.6.6.6 1.26 0 .44-.16.81-.49 1.12-.33.31-.7.48-1.11.51v.03c.19.03.35.1.5.21.15.11.26.22.34.35.09.13.17.29.26.48l.24.52c.18.35.33.6.44.75.09.14.24.22.42.22m-3.59-4.79v1.94h.15c.32 0 .56-.02.73-.07.17-.04.31-.16.42-.34.11-.18.16-.47.16-.85 0-.43-.09-.73-.27-.89-.18-.16-.44-.24-.78-.24l-.25.02-.12.12c-.02.06-.04.16-.04.31"/></svg>